<svg id="Layer_1" data-name="Layer 1" xmlns="http://www.w3.org/2000/svg" viewBox="0 0 503.04 226.28"><defs><style>.cls-1,.cls-2,.cls-3{fill:none;stroke:#ffffff;}.cls-1{stroke-miterlimit:10;}.cls-2,.cls-3{stroke-linejoin:round;}.cls-3{stroke-linecap:round;}</style></defs><path class="cls-1" d="M751.72,140.71" transform="translate(-66.36 -223.98)"/><path class="cls-1" d="M197.67,338.36s.85-21.15-8.46-26.22c-8.44-4.61-10.69-.64-11.68.95a24.53,24.53,0,0,0-1.77,4.52c-.82,2.41-4.62,14.22-12.6,8.62,0,0-2.65-1.52-13.07-13.88-10.92-13-6.86-29-27-20.68l-2.77,1c-1.28.48-12.08,3.09-11.49,21.33.63,19.45,5.71,16.07-12.26,25.37-16.8,8.7-25.51,24.13-26.54,27.07A65.12,65.12,0,0,0,67.43,378c-.41,3.5-3.58,29.24,11.19,42.61A158.64,158.64,0,0,0,108,442s32.15,18.61,47.79-1.69c0,0,11-14.38,13.54-43.77,2.34-27.12,1.71-31.53,1.56-32.83,0-.11-.63-6.25-.63-6.35-.09-2.59-2.27-5.67,6.1-15.64L179,338c1.17-1.46,4.24-8.34,3.72.62a1.22,1.22,0,0,0,0,.27c.14,1.75,1.57,21-.65,38.35-2.32,18.19-3.8,55.19-3.8,55.19l-.72,12.23a2,2,0,0,0,2,2.15h3.07a2,2,0,0,0,2-2l3.11-107.29v-.12c0-1.18.3-19.82-8.88-6.5-8.3,12.06-9.7,11.14-12.47,13.49-1.7,1.42-4.34,4.18-4.52,4.37-2.14,2.32-14.85,17.7-18.53,25.7-4,8.62-13.38,29.73-14.13,31.22a.77.77,0,0,0-.07.16c-.74,1.9-18.37,35.44-21.29.32,0-.13,0-.25,0-.38,0-2.61-.2-31.14,17.34-49.29a36.32,36.32,0,0,1,10.79-8.88c6.44-3.51,7.29-8.65,7.39-9.42,0-.06,0-.11,0-.17,0-1.23.67-17.76,15.22-8.81,13.77,8.48,19.83-5.13,21.64-7.47s2.27-3,2.51-3.17c2-1.78,8.76-6.05,9.68,9.37,1.06,17.56.43,34.68.43,34.68l-.43,35.95-.95,26.17v5.76l-.1,10.91a1,1,0,0,0,0,.17l.42,3.92a2,2,0,0,0,2.13,1.81h0a2,2,0,0,0,1.91-2Z" transform="translate(-66.36 -223.98)"/><path class="cls-2" d="M213.77,446.62a.83.83,0,0,1-.88-.83V343.22s.85-31.93,12.69-24.53,16.07,12.26,25.8,2.54c8.17-8.17,26.83-21.72,32.58-25.84a20.19,20.19,0,0,1,6.74-3.19c8-2.05,23.54-1.38,31.31,30.33a20.71,20.71,0,0,1,.58,5.37c-.21,9.49-1.48,42-8.84,58.46s-5.24,48.07-4.45,56.87a2.15,2.15,0,0,1-2.15,2.33h-3.3a2.51,2.51,0,0,1-2.5-2.2c-.47-3.78-2.37-12-10.13-21.32a17.45,17.45,0,0,1-3.35-6.12c-1.71-5.62-3.88-16.36.72-25.12,4.82-9.17,1.64-27-.38-35.83a13.3,13.3,0,0,0-6.43-8.64c-6.21-3.51-17.95-8.27-34.48-6.92a53.57,53.57,0,0,1-9.42.1,9,9,0,0,1-6.49-3.71c-3.74-5.21-12.75-15.84-12.58,2.77l-1.46,106.57a1.36,1.36,0,0,1-1.28,1.34Z" transform="translate(-66.36 -223.98)"/><path class="cls-2" d="M203.55,445.47,205.43,343s2.71-31.24,3-38.49c.24-6.63,10.85-22.78,20.42-14.48,0,0,5.6,5.34-8.36,17.23-12.88,11-10.94,39.85-10.79,43.18,0,.23,0,.46,0,.7L209,390l.63,45.46v9.69a1.31,1.31,0,0,1-1.31,1.31h-3.88A.92.92,0,0,1,203.55,445.47Z" transform="translate(-66.36 -223.98)"/><path class="cls-1" d="M432.9,330.82a12.37,12.37,0,0,0-3.35-5.25c-2.84-2.63-8.42-6.55-18.42-9.39a8.76,8.76,0,0,1-1.75-.7c-2.49-1.33-10.2-5.71-23-15.61-12.13-9.38-30.68-5.4-38.75-3a11.53,11.53,0,0,0-7.15,6C339,306,337.41,311,336.6,318.51c0,.16-.39,3.15-.61,5s-.55,13.74-3.31,22a119,119,0,0,0-5.91,49.56,16.35,16.35,0,0,0,2.09,6.56c3.37,5.87,10.55,19.35,9.74,26.34-1.06,9.09,9.52,24.53,34.26,18.4S396.12,417,396.12,417s-.85-34.47,26.43-38.07C446.1,375.85,436.08,340.44,432.9,330.82Zm-34.49,40.06c-10.79,4.1-11.63,8.79-13.75,17.25s-4.23,23.26-4.23,23.26c-8.88,24.74-11,4.87-10.78-12.05s-6.55-23.47-11.21-33.41-3.17-21.57-1.69-35.74S368.17,319,368.17,319s3.17.84,6.13,14.8c2.43,11.46,9,10.94,11.27,10.39a7.37,7.37,0,0,1,3.17-.1c2.21.44,6.19,1.77,12.84,5.57C413.42,356.41,409.19,366.78,398.41,370.88Z" transform="translate(-66.36 -223.98)"/><path class="cls-2" d="M454.93,443V405.7c0-.27,0-.53,0-.8-.34-5.58-4.3-67.24-10.75-75.72-6.77-8.88-29-22.84-8.89-37,0,0,4.65-4.44,18.81-.69.41.1,2.63.62,3.86.88a205,205,0,0,0,21.53,2.56c11.63.85,16.07,11.42,16.07,11.42s7.82,14.8-7.4,17.76-18.82,13.74-18.82,13.74-2.11,3.12-.56,18.53a7.24,7.24,0,0,1,0,1.14c-.29,5.46-1.25,19.49-3.91,31.3-2.9,12.85-2.72,31-2.61,35.92,0,.91,0,1.81-.06,2.72l-1,15.61a1.69,1.69,0,0,1-1.69,1.57h-3A1.6,1.6,0,0,1,454.93,443Z" transform="translate(-66.36 -223.98)"/><path class="cls-3" d="M566.54,442.92a1.87,1.87,0,0,1-1.86-1.73c-.57-7.88-3.14-40.51-6.85-50.71-4.23-11.63-2.75-29-2.75-29l.8-46.11c0-.11,0-.21,0-.31l-4.25-87.64c-.37-3.08.4-3,1.82-3a.63.63,0,0,1,.49.27h0a4,4,0,0,1,.64,1.94l4.95,88.54s-.64,43.78,0,48.22-2.22,12.05,2.85,30.13c4.21,15,6,39.07,6.52,46.84a2.36,2.36,0,0,1-2.36,2.5Z" transform="translate(-66.36 -223.98)"/><path class="cls-3" d="M555.58,443.25l-2.23-31.87c0-.12,0-.24-.05-.36-.29-1.51-2.43-11.84-4.16-1.42a9.5,9.5,0,0,0,0,3c.57,3.56,1.8,12.84-.24,15.72-2.53,3.59-10.57,12.54-13.32,14.38-3.38,2.26-24.31,3.17-40-3.39-12.13-5.08-15.75-18.57-16.51-24.48-.17-1.38-.55-2.5-.68-4.14-.17-2.32-1.85-7.63,4.92-21.91,9.73-20.51,13.54-22.42,13.11-32.78-.36-9,9.9-24.45,12.65-28.43a6.28,6.28,0,0,1,1.68-1.65c3.74-2.46,17-10.23,24.16-2.48,4.23,4.54,7.45,4.49,9.62,3.3a6.61,6.61,0,0,0,3.27-5.87l-.2-39.09c0-.42,0-.84,0-1.27l-3.85-54.27a1.65,1.65,0,0,1,1.65-1.76H547a.89.89,0,0,1,.88.84l4.5,96.5c0,.18.29,3.4.32,3.58.32,1.73,1.7,11.19-7.4,18.55-9.94,8-11.21,7.19-12.26,17.76s-.22,16.92-7.19,23.68-5.12,13.22-5.12,13.22,3.21,23.37,17.17,6,18.61-4,18.61-4,3.38,7.61,3,14.17c-.36,5.48,1.06,21.89,1.54,27.13a1.73,1.73,0,0,1-1.48,1.87l-2.72.42A1.06,1.06,0,0,1,555.58,443.25Z" transform="translate(-66.36 -223.98)"/></svg>